<?xml version="1.0" encoding="UTF-8" standalone="no"?>
<!-- Created with Inkscape (http://www.inkscape.org/) -->

<svg
   width="50px"
   height="50px"
   viewBox="0 0 50 50"
   version="1.1"
   id="SVGRoot"
   xmlns="http://www.w3.org/2000/svg"
   xmlns:svg="http://www.w3.org/2000/svg">
  <defs
     id="defs43137" />
  <g
     id="layer1">
    <path
       d="M 17.444506,22.997291 22.501762,17.0223 c 2.139608,-2.505641 2.973221,-3.051742 4.91832,-3.11599 l 0.138936,-1.50981 h -7.863755 l -0.138935,1.50981 h 0.555742 c 0.972549,0 1.44493,0.289113 1.44493,0.931585 0,0.642472 -0.361233,1.349192 -1.333782,2.505642 l -3.390029,4.01545 -2.000672,-5.52526 c -0.277872,-0.770967 -0.277872,-0.770967 -0.277872,-1.027955 0,-0.610349 0.58353,-0.899462 1.861738,-0.899462 h 0.500168 L 17.055486,12.3965 H 8.3025439 L 8.1636083,13.90631 H 8.830499 c 1.917312,0.06425 2.111821,0.224866 2.862074,2.248653 l 2.88986,7.870283 -5.4740632,6.649588 c -2.0840334,2.537765 -2.9176462,3.115989 -4.8349574,3.405102 l -0.1389356,1.50981 h 7.9471152 l 0.166723,-1.50981 h -0.416807 c -1.222633,0 -1.8895242,-0.385484 -1.8895242,-1.124327 0,-0.578224 0.3890192,-1.349191 1.0836982,-2.184405 l 4.195854,-5.107653 2.500841,6.874452 c 0.111148,0.289112 0.166724,0.610348 0.166724,0.803089 0,0.578226 -0.333447,0.738844 -1.695015,0.738844 h -0.861401 l -0.166723,1.50981 h 8.919665 l 0.138937,-1.50981 h -0.722466 c -1.83395,0 -2.056246,-0.192742 -2.834286,-2.345024 z"
       style="font-style:italic;font-size:40px;line-height:1.25;font-family:C059;-inkscape-font-specification:'C059 Italic';white-space:pre;shape-inside:url(#rect5904);fill:#ffffff;stroke:#4b0082;stroke-width:3.21176;stroke-linecap:square;stroke-linejoin:bevel;paint-order:markers stroke fill"
       id="path42611" />
    <path
       d="m 41.75817,14.484535 c -1.361568,-1.831045 -2.750924,-2.569888 -4.862745,-2.569888 -3.056584,0 -5.835296,1.670427 -8.086052,4.882787 -2.02846,2.891126 -3.084371,6.23198 -3.084371,9.797701 0,5.750125 3.223306,9.476464 8.169413,9.476464 2.445267,0 4.529301,-0.963708 6.113167,-2.891125 0.8614,-0.995832 1.472717,-2.184405 2.222969,-4.176068 L 41.091279,28.42618 c -0.694677,1.702552 -1.083697,2.473519 -1.583865,3.180238 -1.36157,1.95954 -3.056583,2.891124 -5.140618,2.891124 -3.251093,0 -5.168403,-2.473517 -5.168403,-6.617463 0,-3.694215 1.111484,-7.934531 2.862072,-11.018397 1.278208,-2.280776 3.112157,-3.56572 5.057257,-3.56572 1.833949,0 3.139943,1.092202 3.890196,3.244484 0.444594,1.188574 0.639103,2.602012 0.722465,5.07553 h 1.139272 l 1.556078,-8.99461 h -1.000336 z"
       style="font-style:italic;font-size:40px;line-height:1.25;font-family:C059;-inkscape-font-specification:'C059 Italic';white-space:pre;shape-inside:url(#rect5904);fill:#ffffff;stroke:#4b0082;stroke-width:3.21176;stroke-linecap:square;stroke-linejoin:bevel;paint-order:markers stroke fill"
       id="path42613" />
  </g>
</svg>
